<?xml version="1.0" encoding="UTF-8"?>
<svg version="1.1" xmlns="http://www.w3.org/2000/svg" width="302" height="302">
<path d="M0 0 C99.66 0 199.32 0 302 0 C302 99.66 302 199.32 302 302 C202.34 302 102.68 302 0 302 C0 202.34 0 102.68 0 0 Z " fill="#FCFCFC" transform="translate(0,0)"/>
<path d="M0 0 C5.47236706 4.42967819 10.75263967 9.04583875 15.875 13.875 C16.59945313 14.535 17.32390625 15.195 18.0703125 15.875 C37.10741867 33.88860584 49.0349782 57.86169854 55.875 82.875 C56.07399902 83.56110352 56.27299805 84.24720703 56.47802734 84.95410156 C63.37869937 109.44837886 62.12555049 138.67600183 54.875 162.875 C54.62862793 163.70161133 54.38225586 164.52822266 54.12841797 165.37988281 C47.85112299 185.60807127 37.45680624 203.71127058 23.875 219.875 C22.61623047 221.37353516 22.61623047 221.37353516 21.33203125 222.90234375 C16.86693623 228.01299467 12.14562399 232.60570354 6.875 236.875 C5.95332031 237.63425781 5.03164062 238.39351563 4.08203125 239.17578125 C-10.44629384 250.89962444 -34.54462641 267.875 -54.125 267.875 C-53.70751102 260.22338916 -52.88321008 252.69272741 -51.78515625 245.11328125 C-51.65773041 244.23219696 -51.53030457 243.35111267 -51.39901733 242.44332886 C-50.86735263 238.79253189 -50.33041988 235.14257878 -49.78442383 231.49389648 C-46.14563379 207.06265563 -44.72946894 182.73936335 -44.69946289 158.05297852 C-44.6951513 155.31072471 -44.67419764 152.56940794 -44.63793945 149.82739258 C-44.40351838 131.76279203 -45.66628314 114.85235622 -49.67295837 97.18528748 C-50.125 94.875 -50.125 94.875 -50.125 91.875 C-52.65485528 92.19886813 -52.65485528 92.19886813 -55.125 93.875 C-55.78516592 95.91331281 -55.78516592 95.91331281 -56.125 98.25 C-56.7235589 101.6917137 -56.98225386 102.712428 -59.375 105.4375 C-62.67102318 107.16042121 -64.458249 107.49912783 -68.125 106.875 C-71.17202206 104.69855567 -72.10238926 102.93152684 -73.5 99.4375 C-75.46544725 95.12863488 -77.36278746 93.63395586 -81.125 90.875 C-74.60486673 85.6559025 -67.44813826 83.04268617 -59.125 83.875 C-57.12117991 84.53009503 -55.12041868 85.19474363 -53.125 85.875 C-50.32459622 85.61246215 -48.55162405 84.58831202 -46 83.3125 C-43.125 81.875 -43.125 81.875 -41.125 81.875 C-42.445 79.895 -43.765 77.915 -45.125 75.875 C-43.145 75.875 -41.165 75.875 -39.125 75.875 C-39.125 75.215 -39.125 74.555 -39.125 73.875 C-40.775 73.215 -42.425 72.555 -44.125 71.875 C-43.465 71.215 -42.805 70.555 -42.125 69.875 C-40.805 69.875 -39.485 69.875 -38.125 69.875 C-38.125 69.215 -38.125 68.555 -38.125 67.875 C-39.775 67.215 -41.425 66.555 -43.125 65.875 C-42.73828125 65.40191406 -42.3515625 64.92882812 -41.953125 64.44140625 C-34.58800892 55.08916726 -31.08858447 45.83923542 -32.125 33.875 C-33.17827611 29.56019994 -34.57127351 25.70621945 -38.125 22.875 C-42.14860178 21.76002601 -45.75767097 22.18449884 -49.46875 24.05859375 C-54.93787135 27.96377115 -58.27691344 32.64497591 -61.6171875 38.421875 C-62.95649715 40.60085547 -64.23408881 42.17657677 -66.125 43.875 C-66.455 42.885 -66.785 41.895 -67.125 40.875 C-69.51064077 41.45084432 -71.79182784 42.09727595 -74.125 42.875 C-74.125 41.225 -74.125 39.575 -74.125 37.875 C-74.67929688 38.16375 -75.23359375 38.4525 -75.8046875 38.75 C-76.52914062 39.12125 -77.25359375 39.4925 -78 39.875 C-78.71929687 40.24625 -79.43859375 40.6175 -80.1796875 41 C-82.125 41.875 -82.125 41.875 -84.125 41.875 C-84.125 39.895 -84.125 37.915 -84.125 35.875 C-85.15625 36.555625 -86.1875 37.23625 -87.25 37.9375 C-89.96475101 39.47786174 -90.96669938 39.87823062 -94.1875 39.8125 C-97.3716037 38.79629669 -100.19588822 37.4790374 -103.125 35.875 C-102.795 38.185 -102.465 40.495 -102.125 42.875 C-105.755 41.225 -109.385 39.575 -113.125 37.875 C-113.125 39.195 -113.125 40.515 -113.125 41.875 C-115.105 41.545 -117.085 41.215 -119.125 40.875 C-119.455 41.535 -119.785 42.195 -120.125 42.875 C-120.785 42.875 -121.445 42.875 -122.125 42.875 C-123.22927429 41.05742421 -124.25757864 39.19348467 -125.25 37.3125 C-128.71027481 31.17540883 -132.71626819 26.0793659 -139.125 22.875 C-142.18249572 22.4618249 -145.07372564 22.39092974 -148.125 22.875 C-151.94498852 26.30319482 -153.87171401 30.54937406 -154.42578125 35.63671875 C-154.47625497 48.23832315 -151.11251767 56.1758714 -143.125 65.875 C-144.775 66.535 -146.425 67.195 -148.125 67.875 C-148.125 68.535 -148.125 69.195 -148.125 69.875 C-146.145 70.205 -144.165 70.535 -142.125 70.875 C-143.445 72.525 -144.765 74.175 -146.125 75.875 C-144.145 76.37 -144.145 76.37 -142.125 76.875 C-142.785 78.525 -143.445 80.175 -144.125 81.875 C-142.145 82.535 -140.165 83.195 -138.125 83.875 C-138.62 85.855 -138.62 85.855 -139.125 87.875 C-137.8565625 87.42447266 -137.8565625 87.42447266 -136.5625 86.96484375 C-123.74474067 82.66798125 -116.32213114 85.23255261 -104.125 89.875 C-105.92994294 91.70625406 -107.7518717 93.42542393 -109.6875 95.125 C-112.49763057 98.29540372 -113.05721617 100.8326755 -114.125 104.875 C-117.87547482 107.37531654 -119.68356266 107.41103554 -124.125 106.875 C-127.0625 104.875 -127.0625 104.875 -129.125 101.875 C-129.52976927 99.06756186 -129.36730971 96.73425459 -129.125 93.875 C-131.105 93.545 -133.085 93.215 -135.125 92.875 C-138.62077391 111.65495086 -139.76988525 129.9228959 -139.875 149 C-139.9032575 151.62762289 -139.9331979 154.25522823 -139.96484375 156.8828125 C-140.03752501 163.21347224 -140.08983602 169.54402617 -140.125 175.875 C-141.03266113 175.8843457 -141.94032227 175.89369141 -142.87548828 175.90332031 C-146.26426814 175.94750484 -149.65181226 176.00919111 -153.04003906 176.08251953 C-154.50248705 176.1106311 -155.9650842 176.13189431 -157.42773438 176.14599609 C-159.53853169 176.16756419 -161.64755429 176.21427656 -163.7578125 176.265625 C-165.02512207 176.28657227 -166.29243164 176.30751953 -167.59814453 176.32910156 C-172.83782443 177.14011667 -176.55980764 179.78920897 -179.9140625 183.8359375 C-180.60520142 184.65674805 -180.60520142 184.65674805 -181.31030273 185.49414062 C-181.78540283 186.07357422 -182.26050293 186.65300781 -182.75 187.25 C-183.79533828 188.49759247 -184.84091854 189.74498222 -185.88671875 190.9921875 C-186.4182959 191.63124023 -186.94987305 192.27029297 -187.49755859 192.92871094 C-190.15362488 196.10515264 -192.86030331 199.23781143 -195.5625 202.375 C-199.11932359 206.51257786 -202.64068234 210.67611265 -206.125 214.875 C-215.17670654 211.85776449 -221.99293041 195.12119966 -226.125 186.875 C-228.42596796 181.98941794 -230.32664744 176.96361742 -232.125 171.875 C-232.52162842 170.77865234 -232.52162842 170.77865234 -232.92626953 169.66015625 C-238.93417453 152.84511123 -240.26360281 137.42779965 -240.375 119.625 C-240.38450684 118.38194092 -240.39401367 117.13888184 -240.40380859 115.8581543 C-240.25625108 74.59943297 -221.10387404 38.9325979 -192.546875 10.2890625 C-141.11188647 -38.52797751 -56.40520261 -43.38274789 0 0 Z " fill="#010101" transform="translate(241.125,32.125)"/>
<path d="M0 0 C99.66 0 199.32 0 302 0 C302 99.66 302 199.32 302 302 C266.69 302 231.38 302 195 302 C195 301.01 195 300.02 195 299 C200.03451734 295.99916269 205.1080566 293.59194934 210.5 291.3125 C224.7921731 285.07983403 237.06949836 276.9966298 249 267 C249.9178125 266.236875 250.835625 265.47375 251.78125 264.6875 C257.95386544 259.35314098 263.05872114 253.47799961 268 247 C268.79148437 245.98550781 269.58296875 244.97101563 270.3984375 243.92578125 C282.4857076 228.03472419 290.66360673 210.16927863 296 191 C296.22300781 190.24589844 296.44601562 189.49179688 296.67578125 188.71484375 C303.2023002 166.01216741 302.57872046 137.59236564 296 115 C295.79681152 114.2692627 295.59362305 113.53852539 295.38427734 112.78564453 C293.18180785 104.93448859 290.61278869 97.32422007 287 90 C286.50886719 88.94554688 286.01773437 87.89109375 285.51171875 86.8046875 C268.79210799 51.8280305 238.78585162 25.87921438 202.61767578 12.52832031 C195.24329353 9.938334 187.77708341 7.90020039 180.10205078 6.40991211 C178.60125213 6.11724766 177.10512189 5.80021283 175.61279297 5.46704102 C167.5529722 3.78335748 159.57267436 3.64594398 151.375 3.6875 C150.3148468 3.68923721 150.3148468 3.68923721 149.23327637 3.69100952 C138.53089533 3.72569849 128.42367269 4.4090756 118 7 C116.97261719 7.2165625 115.94523437 7.433125 114.88671875 7.65625 C78.97031658 15.64824413 46.01121363 39.41451386 26.13378906 70.19775391 C17.55108435 83.84063207 10.37106758 98.01526005 6.1875 113.625 C5.9925293 114.35178955 5.79755859 115.0785791 5.59667969 115.82739258 C2.16400239 129.53842593 1.73438847 142.83772439 1.875 156.875 C1.88505961 158.64192196 1.89418014 160.40884952 1.90234375 162.17578125 C1.92409874 166.45066254 1.95846051 170.72526707 2 175 C-0.46020261 171.30969609 -0.24692442 169.51361352 -0.24050903 165.10945129 C-0.24222107 164.40621735 -0.24393311 163.7029834 -0.24569702 162.97843933 C-0.24901368 160.60897768 -0.23795038 158.23979725 -0.22705078 155.87036133 C-0.22643828 154.14787906 -0.2267048 152.42539628 -0.2277813 150.70291424 C-0.22823352 146.08278153 -0.21662696 141.46275205 -0.20256042 136.84264374 C-0.19118549 132.51012337 -0.190635 128.17762834 -0.18920898 123.84509277 C-0.17870693 111.16754813 -0.15078471 98.49002277 -0.125 85.8125 C-0.08375 57.494375 -0.0425 29.17625 0 0 Z " fill="#FCFCFC" transform="translate(0,0)"/>
<path d="M0 0 C1.31871094 -0.00773438 2.63742188 -0.01546875 3.99609375 -0.0234375 C7.61487313 0.38085111 9.0867661 0.76207178 11.5625 3.375 C11.9375 5.9375 11.9375 5.9375 11.5625 8.375 C10.9025 9.035 10.2425 9.695 9.5625 10.375 C8.2425 10.375 6.9225 10.375 5.5625 10.375 C4.62630187 13.53006142 4.4567877 16.34086502 4.5 19.625 C4.50902344 20.51703125 4.51804688 21.4090625 4.52734375 22.328125 C4.53894531 23.00359375 4.55054688 23.6790625 4.5625 24.375 C9.8711849 23.79325155 9.8711849 23.79325155 14.5625 21.375 C14.15039699 26.62931335 13.3270482 29.6104518 9.5625 33.375 C6.27157406 34.47197531 3.65137841 34.6121983 0.1875 34.6875 C-1.49472656 34.74357422 -1.49472656 34.74357422 -3.2109375 34.80078125 C-7.09411345 34.28835246 -8.65783531 33.06967494 -11.4375 30.375 C-13.09988095 27.95699134 -13.54706696 27.03240174 -13.0625 24.125 C-12.85625 23.5475 -12.65 22.97 -12.4375 22.375 C-10.9525 23.365 -10.9525 23.365 -9.4375 24.375 C-7.7875 24.375 -6.1375 24.375 -4.4375 24.375 C-4.4375 19.755 -4.4375 15.135 -4.4375 10.375 C-6.0875 10.375 -7.7375 10.375 -9.4375 10.375 C-10.0975 9.715 -10.7575 9.055 -11.4375 8.375 C-11.23531701 5.7466211 -10.814845 3.9437322 -9.3515625 1.73828125 C-6.43285021 -0.34055669 -3.44695027 -0.05948716 0 0 Z " fill="#0A0A0A" transform="translate(146.4375,133.625)"/>
<path d="M0 0 C2.16299211 -0.22757731 2.16299211 -0.22757731 4 -1 C4.99 -1.33 5.98 -1.66 7 -2 C6.625 -0.0625 6.625 -0.0625 6 2 C5.34 2.33 4.68 2.66 4 3 C4.495 5.475 4.495 5.475 5 8 C4.34 8.33 3.68 8.66 3 9 C3 8.01 3 7.02 3 6 C0.47014472 6.32386813 0.47014472 6.32386813 -2 8 C-2.66016592 10.03831281 -2.66016592 10.03831281 -3 12.375 C-3.5985589 15.8167137 -3.85725386 16.837428 -6.25 19.5625 C-9.54602318 21.28542121 -11.333249 21.62412783 -15 21 C-18.04702206 18.82355567 -18.97738926 17.05652684 -20.375 13.5625 C-22.34044725 9.25363488 -24.23778746 7.75895586 -28 5 C-19.20204172 -2.04240238 -10.5707639 -3.60366951 0 0 Z " fill="#060606" transform="translate(188,118)"/>
<path d="M0 0 C-1.80494294 1.83125406 -3.6268717 3.55042393 -5.5625 5.25 C-8.37263057 8.42040372 -8.93221617 10.9576755 -10 15 C-13.75047482 17.50031654 -15.55856266 17.53603554 -20 17 C-22.9375 15 -22.9375 15 -25 12 C-25.40476927 9.19256186 -25.24230971 6.85925459 -25 4 C-27.97 3.505 -27.97 3.505 -31 3 C-31.144375 2.38125 -31.28875 1.7625 -31.4375 1.125 C-31.93152225 -1.03258322 -31.93152225 -1.03258322 -33 -3 C-20.1590692 -7.17802344 -12.242603 -4.65975479 0 0 Z " fill="#080808" transform="translate(137,122)"/>
<path d="M0 0 C0.72796303 10.73745463 -2.05161102 20.70053538 -9 29 C-9.99 28.67 -10.98 28.34 -12 28 C-11.34 26.68 -10.68 25.36 -10 24 C-12.31 24 -14.62 24 -17 24 C-16.34 22.68 -15.68 21.36 -15 20 C-15.99 19.67 -16.98 19.34 -18 19 C-15.48005131 11.98367228 -8.33482664 0 0 0 Z " fill="#0C0C0C" transform="translate(201,64)"/>
<path d="M0 0 C7.96199808 1.54382969 12.36955167 8.52506397 16.71484375 14.828125 C18 17 18 17 18 19 C17.01 19.33 16.02 19.66 15 20 C15.66 21.32 16.32 22.64 17 24 C14.69 24.33 12.38 24.66 10 25 C10.66 25.99 11.32 26.98 12 28 C11.01 28.33 10.02 28.66 9 29 C2.09163202 19.74412833 -0.66416927 11.56146501 0 0 Z " fill="#090909" transform="translate(95,64)"/>
<path d="M0 0 C2 2 2 2 2.01171875 4.21484375 C1.90472656 5.11332031 1.79773438 6.01179688 1.6875 6.9375 C1.58824219 7.81277344 1.48898438 8.68804687 1.38671875 9.58984375 C1.19529297 11.27787109 1.19529297 11.27787109 1 13 C0.20550017 20.72304033 -0.25899526 28.43071497 -0.5625 36.1875 C-0.60568359 37.23486328 -0.64886719 38.28222656 -0.69335938 39.36132812 C-0.79799509 41.90746397 -0.90017546 44.45367178 -1 47 C-1.99 47.495 -1.99 47.495 -3 48 C-3.05034615 43.98392647 -3.08615418 39.96798115 -3.10986328 35.95166016 C-3.12458051 33.93255127 -3.15002367 31.91352948 -3.17578125 29.89453125 C-3.2255323 19.79506727 -2.64294746 9.7958514 0 0 Z " fill="#1B1B1B" transform="translate(4,119)"/>
<path d="M0 0 C0.495 1.485 0.495 1.485 1 3 C-0.58984375 5.3828125 -0.58984375 5.3828125 -2.9375 8.125 C-3.77023437 9.10210937 -4.60296875 10.07921875 -5.4609375 11.0859375 C-6.71777344 12.52839844 -6.71777344 12.52839844 -8 14 C-8.69351562 14.81726563 -9.38703125 15.63453125 -10.1015625 16.4765625 C-16.32664647 23.69369173 -23.15770137 29.60841969 -31 35 C-31 32 -31 32 -28.8828125 29.73828125 C-27.97273437 28.93777344 -27.06265625 28.13726562 -26.125 27.3125 C-24.76761719 26.10013672 -24.76761719 26.10013672 -23.3828125 24.86328125 C-21 23 -21 23 -19 23 C-19 22.34 -19 21.68 -19 21 C-17.93619611 20.03678502 -16.8204078 19.13089825 -15.6875 18.25 C-9.48723587 13.02931081 -4.85649349 6.43663935 0 0 Z " fill="#212121" transform="translate(272,239)"/>
<path d="M0 0 C0.73404053 0.21873779 1.46808105 0.43747559 2.22436523 0.6628418 C10.92700729 3.37431474 19.1428768 7.18232965 27.375 11.0625 C27.045 11.7225 26.715 12.3825 26.375 13.0625 C21.91040225 11.64689584 17.67410673 9.91556325 13.375 8.0625 C7.44737973 5.71189196 1.44411946 3.83170704 -4.671875 2.02734375 C-7.15643429 1.21558959 -9.33801723 0.31145904 -11.625 -0.9375 C-7.5539262 -2.59724547 -4.00044767 -1.22062251 0 0 Z " fill="#111111" transform="translate(194.625,8.9375)"/>
<path d="M0 0 C0.33 0 0.66 0 1 0 C1.02477487 5.03539677 1.04289549 10.07075781 1.05493164 15.10620117 C1.05995099 16.81812152 1.06676785 18.53003761 1.07543945 20.24194336 C1.08761021 22.70687922 1.09325238 25.17175825 1.09765625 27.63671875 C1.10281754 28.39836838 1.10797882 29.16001801 1.11329651 29.94474792 C1.11369638 33.75849825 0.92590961 37.29315771 0 41 C-0.66 40.67 -1.32 40.34 -2 40 C-1.88143617 35.10685939 -1.75716714 30.21390882 -1.62768555 25.32104492 C-1.58446216 23.65767319 -1.54277854 21.99426068 -1.50268555 20.33081055 C-1.44467668 17.93525932 -1.38107171 15.53991092 -1.31640625 13.14453125 C-1.29969376 12.4047554 -1.28298126 11.66497955 -1.26576233 10.90278625 C-1.1592724 7.16354068 -0.87812248 3.64061456 0 0 Z " fill="#141414" transform="translate(300,135)"/>
<path d="M0 0 C0.33 0 0.66 0 1 0 C1.049467 5.48094366 1.0857514 10.96175713 1.10986328 16.44287109 C1.11991593 18.30715194 1.13356005 20.17141703 1.15087891 22.03564453 C1.17515953 24.71651091 1.18649047 27.39716866 1.1953125 30.078125 C1.20563507 30.91055725 1.21595764 31.7429895 1.22659302 32.60064697 C1.22737105 36.62057757 1.20204452 39.51046568 -1 43 C-1.69730806 45.3243602 -2.36912152 47.65673706 -3 50 C-4.39123752 46.19728411 -3.55648408 43.49621366 -2.625 39.625 C0.18410342 26.72181995 -0.23239855 13.14785154 0 0 Z " fill="#AEAEAE" transform="translate(301,141)"/>
<path d="M0 0 C0.66 0.33 1.32 0.66 2 1 C2.36300778 7.29213483 2.36300778 7.29213483 0.75 10.4375 C-1 12 -1 12 -5 12 C-4.01 13.32 -3.02 14.64 -2 16 C-3.32 16 -4.64 16 -6 16 C-8.3125 13.25 -8.3125 13.25 -10 10 C-9.75 7.625 -9.75 7.625 -9 6 C-7.515 6.99 -7.515 6.99 -6 8 C-3.37468476 8.16713569 -3.37468476 8.16713569 -1 8 C-0.67 5.36 -0.34 2.72 0 0 Z " fill="#1B1B1B" transform="translate(143,150)"/>
<path d="M0 0 C2 2 2 2 2.01171875 4.96875 C1.90472656 6.1340625 1.79773438 7.299375 1.6875 8.5 C1.58824219 9.6653125 1.48898438 10.830625 1.38671875 12.03125 C1 15 1 15 0 17 C4.455 16.01 4.455 16.01 9 15 C9.33 15.66 9.66 16.32 10 17 C6.04 17.99 2.08 18.98 -2 20 C-1 6.14285714 -1 6.14285714 0 0 Z " fill="#191919" transform="translate(189,280)"/>
<path d="M0 0 C0.6875 1.625 0.6875 1.625 1 4 C-0.34805991 7.20966645 -1.53401431 9.53401431 -4 12 C-7.2578125 12.1953125 -7.2578125 12.1953125 -11.125 12.125 C-13.04699219 12.09792969 -13.04699219 12.09792969 -15.0078125 12.0703125 C-16.48894531 12.03550781 -16.48894531 12.03550781 -18 12 C-18 11.67 -18 11.34 -18 11 C-17.22914063 10.93941406 -16.45828125 10.87882813 -15.6640625 10.81640625 C-14.66117188 10.73261719 -13.65828125 10.64882812 -12.625 10.5625 C-11.62726563 10.48128906 -10.62953125 10.40007812 -9.6015625 10.31640625 C-7.02072387 10.15034374 -7.02072387 10.15034374 -5 9 C-5 8.01 -5 7.02 -5 6 C-5.99 5.34 -6.98 4.68 -8 4 C-6.865625 3.525625 -5.73125 3.05125 -4.5625 2.5625 C-1.24259834 1.36377917 -1.24259834 1.36377917 0 0 Z " fill="#212121" transform="translate(160,155)"/>
<path d="M0 0 C1.7424767 3.02381136 2.25586912 5.21734006 2.265625 8.6953125 C2.26949219 10.01595703 2.26949219 10.01595703 2.2734375 11.36328125 C2.26570312 12.27464844 2.25796875 13.18601563 2.25 14.125 C2.25773438 15.04410156 2.26546875 15.96320313 2.2734375 16.91015625 C2.27085937 17.78800781 2.26828125 18.66585937 2.265625 19.5703125 C2.26336914 20.37227051 2.26111328 21.17422852 2.25878906 22.00048828 C2 24 2 24 0 26 C-0.19583915 21.85451585 -0.38027842 17.7086033 -0.5625 13.5625 C-0.61857422 12.37849609 -0.67464844 11.19449219 -0.73242188 9.97460938 C-0.78076172 8.84990234 -0.82910156 7.72519531 -0.87890625 6.56640625 C-0.9260376 5.52427979 -0.97316895 4.48215332 -1.02172852 3.40844727 C-1 1 -1 1 0 0 Z " fill="#161616" transform="translate(197,147)"/>
<path d="M0 0 C0.99 0.33 1.98 0.66 3 1 C0.8073796 3.27695195 -1.32549746 5.24058508 -3.875 7.125 C-8.09140853 10.53469771 -10.43211574 15.31042413 -13 20 C-13.66 19.67 -14.32 19.34 -15 19 C-13.57292963 14.96153796 -11.63122108 11.77865104 -9.125 8.3125 C-8.10792969 6.88357422 -8.10792969 6.88357422 -7.0703125 5.42578125 C-5.08081369 3.09468925 -3.78785202 2.1284163 -1 1 C-0.67 0.67 -0.34 0.34 0 0 Z " fill="#161616" transform="translate(191,53)"/>
<path d="M0 0 C0.33 0.99 0.66 1.98 1 3 C-1.66666667 5 -4.33333333 7 -7 9 C-7.70640625 9.56074219 -8.4128125 10.12148438 -9.140625 10.69921875 C-11 12 -11 12 -13 12 C-13 12.99 -13 13.98 -13 15 C-14.98 15.66 -16.96 16.32 -19 17 C-13.67766322 10.00492881 -7.01562037 5.17323935 0 0 Z " fill="#1C1C1C" transform="translate(63,31)"/>
<path d="M0 0 C0.66 0.33 1.32 0.66 2 1 C0.65620963 2.34379037 -0.69819737 3.67703988 -2.0625 5 C-5.5661098 8.46177565 -8.71428116 12.24792252 -11.9140625 15.98828125 C-14 18 -14 18 -17 18 C-16.41992188 17.35933594 -15.83984375 16.71867187 -15.2421875 16.05859375 C-11.63047944 12.05949126 -8.02768504 8.06476754 -4.5625 3.9375 C-2 1 -2 1 0 0 Z " fill="#D9D9D9" transform="translate(68,209)"/>
<path d="M0 0 C0.66 0 1.32 0 2 0 C2.38838614 2.79040505 2.76120046 5.58137886 3.125 8.375 C3.23714844 9.1690625 3.34929688 9.963125 3.46484375 10.78125 C3.72721267 12.84521885 3.87150738 14.92339351 4 17 C3.34 17.66 2.68 18.32 2 19 C0.04978464 12.53991163 -0.22262303 6.7281627 0 0 Z " fill="#2E2E2E" transform="translate(2,168)"/>
<path d="M0 0 C6.09425346 3.78831972 11.49400055 8.41493284 17 13 C16.34 13.66 15.68 14.32 15 15 C12.89441606 13.2308289 10.79049842 11.4597399 8.6875 9.6875 C8.09259766 9.18798828 7.49769531 8.68847656 6.88476562 8.17382812 C6.30791016 7.68720703 5.73105469 7.20058594 5.13671875 6.69921875 C4.60780029 6.25408936 4.07888184 5.80895996 3.53393555 5.3503418 C1.95471373 3.96013395 0.47187013 2.50273504 -1 1 C-0.67 0.67 -0.34 0.34 0 0 Z " fill="#1B1B1B" transform="translate(236,29)"/>
<path d="M0 0 C0.66 0.33 1.32 0.66 2 1 C1.24074219 1.89203125 0.48148438 2.7840625 -0.30078125 3.703125 C-1.30474754 4.88536568 -2.30865046 6.06766018 -3.3125 7.25 C-3.81201172 7.83652344 -4.31152344 8.42304688 -4.82617188 9.02734375 C-6.88050092 11.44900315 -8.88299718 13.83624887 -10.73046875 16.421875 C-11.14941406 16.94265625 -11.56835938 17.4634375 -12 18 C-12.66 18 -13.32 18 -14 18 C-12.27516405 13.81701462 -9.36188175 10.69369939 -6.4375 7.3125 C-5.93025391 6.71888672 -5.42300781 6.12527344 -4.90039062 5.51367188 C-1.24503968 1.24503968 -1.24503968 1.24503968 0 0 Z " fill="#141414" transform="translate(49,227)"/>
<path d="M0 0 C0.68932075 2.14455345 1.11153318 3.56300639 0.54711914 5.77441406 C-0.12229113 8.49745914 -0.21632294 11.05704239 -0.31640625 13.859375 C-0.35830078 14.97441406 -0.40019531 16.08945313 -0.44335938 17.23828125 C-0.48267578 18.39714844 -0.52199219 19.55601562 -0.5625 20.75 C-0.60568359 21.92433594 -0.64886719 23.09867188 -0.69335938 24.30859375 C-0.79934794 27.20561451 -0.90141638 30.10271935 -1 33 C-1.33 33 -1.66 33 -2 33 C-2.04938149 28.62176083 -2.0857104 24.24366854 -2.10986328 19.86523438 C-2.11993043 18.3752968 -2.13358518 16.88537903 -2.15087891 15.39550781 C-2.17509653 13.25580972 -2.18647564 11.11637247 -2.1953125 8.9765625 C-2.21102295 7.04417725 -2.21102295 7.04417725 -2.22705078 5.07275391 C-2 2 -2 2 0 0 Z " fill="#121212" transform="translate(100,173)"/>
<path d="M0 0 C-3.31520125 2.79822679 -6.69781061 4.18818992 -10.75 5.6875 C-11.92046875 6.12449219 -13.0909375 6.56148438 -14.296875 7.01171875 C-15.18890625 7.33785156 -16.0809375 7.66398437 -17 8 C-17.66 7.34 -18.32 6.68 -19 6 C-18.18015625 5.66226562 -17.3603125 5.32453125 -16.515625 4.9765625 C-15.43796875 4.53054688 -14.3603125 4.08453125 -13.25 3.625 C-11.64898437 2.96371094 -11.64898437 2.96371094 -10.015625 2.2890625 C-7.09113874 1.10069712 -7.09113874 1.10069712 -4.796875 -0.2265625 C-3 -1 -3 -1 0 0 Z " fill="#121212" transform="translate(218,288)"/>
<path d="M0 0 C0.33 0.99 0.66 1.98 1 3 C-0.73046875 5.55859375 -0.73046875 5.55859375 -3.1875 8.4375 C-3.98542969 9.38496094 -4.78335937 10.33242187 -5.60546875 11.30859375 C-7.66754568 13.62632786 -9.77672184 15.83805366 -12 18 C-12.66 17.67 -13.32 17.34 -14 17 C-13.24074219 16.10796875 -12.48148437 15.2159375 -11.69921875 14.296875 C-10.69525246 13.11463432 -9.69134954 11.93233982 -8.6875 10.75 C-8.18798828 10.16347656 -7.68847656 9.57695312 -7.17382812 8.97265625 C-4.68918088 6.04373434 -2.2565687 3.11144626 0 0 Z " fill="#141414" transform="translate(272,239)"/>
<path d="M0 0 C2.17520782 3.26281174 2.28244319 4.2340908 2 8 C1.67 8.99 1.34 9.98 1 11 C0.96125079 12.66621616 0.9549714 14.33394172 1 16 C0.34 16 -0.32 16 -1 16 C-0.773125 16.5775 -0.54625 17.155 -0.3125 17.75 C0 20 0 20 -1.48046875 22.140625 C-1.98191406 22.75421875 -2.48335937 23.3678125 -3 24 C-2 16 -1 8 0 0 Z " fill="#393939" transform="translate(194,244)"/>
<path d="M0 0 C0.66 0.99 1.32 1.98 2 3 C1.26530861 4.63197842 0.51161878 6.25541307 -0.25 7.875 C-0.66765625 8.77992187 -1.0853125 9.68484375 -1.515625 10.6171875 C-3.12441692 13.19972189 -4.19219328 13.95607186 -7 15 C-7 12 -7 12 -5.63671875 10.60546875 C-5.09660156 10.07566406 -4.55648437 9.54585937 -4 9 C-2.7951851 6.73972655 -2.7951851 6.73972655 -1.8125 4.3125 C-1.46832031 3.50425781 -1.12414062 2.69601563 -0.76953125 1.86328125 C-0.38861328 0.94095703 -0.38861328 0.94095703 0 0 Z " fill="#171717" transform="translate(197,78)"/>
<path d="M0 0 C2 2 2 2 2.22705078 3.87939453 C2.21657715 4.62302246 2.20610352 5.36665039 2.1953125 6.1328125 C2.18886719 6.93847656 2.18242188 7.74414062 2.17578125 8.57421875 C2.15902344 9.41597656 2.14226562 10.25773438 2.125 11.125 C2.11597656 11.97449219 2.10695313 12.82398438 2.09765625 13.69921875 C2.07405647 15.79959884 2.03818483 17.89983444 2 20 C1.01 19.34 0.02 18.68 -1 18 C-1.328125 15.13671875 -1.328125 15.13671875 -1.25 11.6875 C-1.23453125 10.55699219 -1.2190625 9.42648438 -1.203125 8.26171875 C-1.02515376 5.40391132 -0.64755162 2.78342754 0 0 Z " fill="#282828" transform="translate(99,151)"/>
<path d="M0 0 C0.99 0.33 1.98 0.66 3 1 C3 3.31 3 5.62 3 8 C7.455 9.98 7.455 9.98 12 12 C12 12.33 12 12.66 12 13 C7.74981621 13.41668469 5.64657432 13.44022082 2.0625 11 C-0.70834355 6.96968211 -0.40691598 4.80160858 0 0 Z " fill="#1D1D1D" transform="translate(112,126)"/>
<path d="M0 0 C2.13209391 2.75290949 4.01356503 5.54416744 5.75 8.5625 C6.19859375 9.32691406 6.6471875 10.09132813 7.109375 10.87890625 C8 13 8 13 7 16 C4.42758657 13.7207391 3.2270583 11.60657647 1.9375 8.4375 C0.80810841 5.67525309 0.13254655 4.13254655 -2 2 C-1.34 1.34 -0.68 0.68 0 0 Z " fill="#151515" transform="translate(281,78)"/>
<path d="M0 0 C2.5 1 2.5 1 4 2 C2 4 2 4 -0.56640625 4.046875 C-1.55511719 3.94890625 -2.54382813 3.8509375 -3.5625 3.75 C-4.55378906 3.66234375 -5.54507813 3.5746875 -6.56640625 3.484375 C-7.36949219 3.32453125 -8.17257813 3.1646875 -9 3 C-9.33 2.34 -9.66 1.68 -10 1 C-6.83013832 -0.58493084 -3.45967739 -0.2940042 0 0 Z " fill="#2B2B2B" transform="translate(182,116)"/>
<path d="M0 0 C0.99 0 1.98 0 3 0 C5.04296875 2.5546875 5.04296875 2.5546875 7.1875 5.875 C7.90292969 6.96554688 8.61835938 8.05609375 9.35546875 9.1796875 C11 12 11 12 11 14 C6.93248796 12.64416265 6.11885069 10.56245061 3.8125 7 C3.09707031 5.906875 2.38164062 4.81375 1.64453125 3.6875 C0 1 0 1 0 0 Z " fill="#1B1B1B" transform="translate(270,64)"/>
<path d="M0 0 C1 3 1 3 0.375 5.375 C-1.27960884 8.53379869 -3.39000967 10.59606154 -6 13 C-6.66 12.67 -7.32 12.34 -8 12 C-6.85573734 10.186508 -5.70954608 8.37423275 -4.5625 6.5625 C-3.60537109 5.04849609 -3.60537109 5.04849609 -2.62890625 3.50390625 C-1 1 -1 1 0 0 Z " fill="#1E1E1E" transform="translate(31,62)"/>
<path d="M0 0 C0.33 0 0.66 0 1 0 C2.00053923 4.60387979 1.86574911 8.24450513 1.0625 12.875 C0.86785156 14.02742187 0.67320313 15.17984375 0.47265625 16.3671875 C0.31667969 17.23601562 0.16070312 18.10484375 0 19 C-0.66 19 -1.32 19 -2 19 C-2.24794402 12.4294834 -1.32388229 6.43028541 0 0 Z " fill="#0F0F0F" transform="translate(103,126)"/>
<path d="M0 0 C1.11346788 2.80033839 1.03510273 3.90143703 0.00390625 6.796875 C-0.47175781 7.77140625 -0.94742187 8.7459375 -1.4375 9.75 C-1.91058594 10.73484375 -2.38367188 11.7196875 -2.87109375 12.734375 C-3.24363281 13.48203125 -3.61617187 14.2296875 -4 15 C-4.99 15 -5.98 15 -7 15 C-5.45454854 9.52067211 -2.84456788 4.88570819 0 0 Z " fill="#212121" transform="translate(22,75)"/>
<path d="M0 0 C0.66 0.66 1.32 1.32 2 2 C0.625 3.5 0.625 3.5 -1 5 C-1.66 5 -2.32 5 -3 5 C-3.2475 5.7425 -3.495 6.485 -3.75 7.25 C-5.09147301 10.20124062 -6.60905526 11.84814974 -9 14 C-9.66 13.67 -10.32 13.34 -11 13 C-9.54300902 11.20724155 -8.08436345 9.41582771 -6.625 7.625 C-5.40683594 6.12839844 -5.40683594 6.12839844 -4.1640625 4.6015625 C-2 2 -2 2 0 0 Z " fill="#222222" transform="translate(43,48)"/>
<path d="M0 0 C0.33 1.32 0.66 2.64 1 4 C4.63 3.01 8.26 2.02 12 1 C10.9375 3.5 10.9375 3.5 9 6 C5.57255771 6.3607834 3.11877956 6.55938978 0 5 C0 3.35 0 1.7 0 0 Z " fill="#DADADA" transform="translate(186,296)"/>
<path d="M0 0 C0.556875 0.70125 1.11375 1.4025 1.6875 2.125 C4.09124732 5.11344261 6.53810432 8.05940238 9 11 C7.02 11.99 7.02 11.99 5 13 C5 11.68 5 10.36 5 9 C4.34 9 3.68 9 3 9 C2.67 7.68 2.34 6.36 2 5 C1.34 5 0.68 5 0 5 C-0.5625 3.0625 -0.5625 3.0625 -1 1 C-0.67 0.67 -0.34 0.34 0 0 Z " fill="#101010" transform="translate(89,87)"/>
<path d="M0 0 C4.75481646 0.57634139 7.97048212 2.55068521 12 5 C12 5.99 12 6.98 12 8 C7.69235185 6.43358249 3.93828536 4.31663844 0 2 C0 1.34 0 0.68 0 0 Z " fill="#111111" transform="translate(222,22)"/>
<path d="M0 0 C1.98 0.495 1.98 0.495 4 1 C4 1.99 4 2.98 4 4 C6.31 4 8.62 4 11 4 C8.37801226 6.15377564 6.35595828 7.40072174 3 8 C3 6.02 3 4.04 3 2 C2.01 2.33 1.02 2.66 0 3 C0 2.01 0 1.02 0 0 Z " fill="#242424" transform="translate(154,66)"/>
<path d="M0 0 C-1.32 0.33 -2.64 0.66 -4 1 C-4 1.66 -4 2.32 -4 3 C-11.26 2.67 -18.52 2.34 -26 2 C-26 1.67 -26 1.34 -26 1 C-22.7917943 0.83081552 -19.58341796 0.66510635 -16.375 0.5 C-15.47136719 0.45230469 -14.56773437 0.40460938 -13.63671875 0.35546875 C-9.08545547 0.12292245 -4.55915017 -0.06058671 0 0 Z " fill="#232323" transform="translate(167,3)"/>
<path d="M0 0 C0.73089844 -0.00338379 1.46179688 -0.00676758 2.21484375 -0.01025391 C3.40980469 -0.01605469 3.40980469 -0.01605469 4.62890625 -0.02197266 C5.46164063 -0.01037109 6.294375 0.00123047 7.15234375 0.01318359 C7.98507813 0.00158203 8.8178125 -0.01001953 9.67578125 -0.02197266 C10.47242188 -0.01810547 11.2690625 -0.01423828 12.08984375 -0.01025391 C12.82074219 -0.00687012 13.55164063 -0.00348633 14.3046875 0 C16.15234375 0.38818359 16.15234375 0.38818359 18.15234375 3.38818359 C10.81901042 3.38818359 3.48567708 3.38818359 -3.84765625 3.38818359 C-1.84765625 0.38818359 -1.84765625 0.38818359 0 0 Z " fill="#1C1C1C" transform="translate(139.84765625,134.61181640625)"/>
<path d="M0 0 C0.33 0 0.66 0 1 0 C1.25 2.25 1.25 2.25 1 5 C-1 7.3125 -1 7.3125 -3 9 C-2.67 9.99 -2.34 10.98 -2 12 C-4.475 11.01 -4.475 11.01 -7 10 C-6.57847656 9.44570312 -6.15695313 8.89140625 -5.72265625 8.3203125 C-5.17480469 7.59585938 -4.62695312 6.87140625 -4.0625 6.125 C-3.51722656 5.40570313 -2.97195312 4.68640625 -2.41015625 3.9453125 C-0.96035376 2.05642921 -0.96035376 2.05642921 0 0 Z " fill="#232323" transform="translate(205,88)"/>
<path d="M0 0 C0 0.66 0 1.32 0 2 C-1.62463842 2.05395478 -3.24978541 2.09277195 -4.875 2.125 C-5.77992187 2.14820312 -6.68484375 2.17140625 -7.6171875 2.1953125 C-10 2 -10 2 -12 0 C-7.91556885 -1.53166168 -4.20544343 -0.63081652 0 0 Z " fill="#232323" transform="translate(123,117)"/>
<path d="M0 0 C4 1 4 1 6 3 C5.01 3.495 5.01 3.495 4 4 C3.34 3.67 2.68 3.34 2 3 C1.67 5.31 1.34 7.62 1 10 C0.67 10 0.34 10 0 10 C0 6.7 0 3.4 0 0 Z " fill="#1A1A1A" transform="translate(95,64)"/>
<path d="M0 0 C2.72574271 0.37330824 3.80822085 0.79194601 5.703125 2.84765625 C6.21359375 3.57855469 6.7240625 4.30945312 7.25 5.0625 C8.03117187 6.16271484 8.03117187 6.16271484 8.828125 7.28515625 C9.21484375 7.85105469 9.6015625 8.41695312 10 9 C7 9 7 9 5.17578125 7.28515625 C4.56089844 6.55167969 3.94601562 5.81820312 3.3125 5.0625 C2.68988281 4.33160156 2.06726563 3.60070313 1.42578125 2.84765625 C0 1 0 1 0 0 Z " fill="#1C1C1C" transform="translate(260,52)"/>
<path d="M0 0 C4.85967024 2.50346649 8.27856704 6.08552441 12 10 C11.34 10.66 10.68 11.32 10 12 C9.62488281 11.54109375 9.24976562 11.0821875 8.86328125 10.609375 C5.82545052 6.96703891 2.84619007 3.82808093 -1 1 C-0.67 0.67 -0.34 0.34 0 0 Z " fill="#1B1B1B" transform="translate(103,53)"/>
<path d="M0 0 C-2.95769397 1.97179598 -4.16417962 2.36929854 -7.5625 2.75 C-8.34753906 2.84796875 -9.13257812 2.9459375 -9.94140625 3.046875 C-12 3 -12 3 -14 1 C-4.58997722 -1.48063781 -4.58997722 -1.48063781 0 0 Z " fill="#161616" transform="translate(123,7)"/>
<path d="M0 0 C0 0.33 0 0.66 0 1 C-2.26955186 1.22185844 -4.54073755 1.42705515 -6.8125 1.625 C-8.70935547 1.79902344 -8.70935547 1.79902344 -10.64453125 1.9765625 C-14 2 -14 2 -17 0 C-11.1314592 -1.14819277 -5.9114744 -0.77313045 0 0 Z " fill="#202020" transform="translate(138,5)"/>
<path d="M0 0 C0.66 0 1.32 0 2 0 C0.33248852 3.94139078 -2.22710649 6.7892812 -5 10 C-5.66 9.34 -6.32 8.68 -7 8 C-5.88200014 6.66079162 -4.75538103 5.32877444 -3.625 4 C-2.68527344 2.88625 -2.68527344 2.88625 -1.7265625 1.75 C-1.15679687 1.1725 -0.58703125 0.595 0 0 Z " fill="#1E1E1E" transform="translate(59,215)"/>
<path d="M0 0 C0.66 0.33 1.32 0.66 2 1 C2 3.97 2 6.94 2 10 C1.01 10.495 1.01 10.495 0 11 C-0.19406478 9.35492782 -0.38007935 7.70890406 -0.5625 6.0625 C-0.66691406 5.14597656 -0.77132812 4.22945312 -0.87890625 3.28515625 C-0.91886719 2.53105469 -0.95882812 1.77695313 -1 1 C-0.67 0.67 -0.34 0.34 0 0 Z " fill="#161616" transform="translate(193,126)"/>
<path d="M0 0 C2 2 2 2 2.375 4.875 C1.92491816 8.62568199 0.87398748 9.66488517 -2 12 C-1 3.42857143 -1 3.42857143 0 0 Z " fill="#363636" transform="translate(4,119)"/>
<path d="M0 0 C1.73267972 2.59901958 2.48482049 4.13842116 3.25 7.0625 C3.44078125 7.75472656 3.6315625 8.44695312 3.828125 9.16015625 C3.88484375 9.76730469 3.9415625 10.37445313 4 11 C3.34 11.66 2.68 12.32 2 13 C-0.47058824 4.6 -0.47058824 4.6 -1 1 C-0.67 0.67 -0.34 0.34 0 0 Z " fill="#161616" transform="translate(292,102)"/>
<path d="M0 0 C3.59391114 1.33488128 6.75490696 2.96022723 10 5 C7.5332355 5.88336837 6.36140628 6.1312406 3.859375 5.22265625 C3.16328125 4.83980469 2.4671875 4.45695312 1.75 4.0625 C1.04359375 3.68222656 0.3371875 3.30195312 -0.390625 2.91015625 C-0.92171875 2.60980469 -1.4528125 2.30945313 -2 2 C-1.34 1.34 -0.68 0.68 0 0 Z " fill="#222222" transform="translate(140,66)"/>
<path d="M0 0 C0.99 0.33 1.98 0.66 3 1 C1.8553125 1.8971875 1.8553125 1.8971875 0.6875 2.8125 C-1.91335259 4.84004112 -1.91335259 4.84004112 -3.6875 6.75 C-5 8 -5 8 -7 8 C-5.51218185 4.21282653 -3.38011591 2.22592999 0 0 Z " fill="#0D0D0D" transform="translate(67,207)"/>
<path d="M0 0 C0.99 0.33 1.98 0.66 3 1 C0.525 5.455 0.525 5.455 -2 10 C-2.66 9.67 -3.32 9.34 -4 9 C-2.80100302 5.9168649 -1.52299523 2.93720508 0 0 Z " fill="#181818" transform="translate(278,228)"/>
<path d="M0 0 C1.32 0.33 2.64 0.66 4 1 C3.34 1 2.68 1 2 1 C-0.03165952 5.33420699 -0.52060632 9.28596212 -1 14 C-1.33 14 -1.66 14 -2 14 C-2.05437607 12.41705218 -2.09296271 10.83355744 -2.125 9.25 C-2.14820313 8.36828125 -2.17140625 7.4865625 -2.1953125 6.578125 C-1.99139502 3.8864142 -1.36551721 2.30095026 0 0 Z " fill="#BBBBBB" transform="translate(152,144)"/>
<path d="M0 0 C-2.40921705 2.40921705 -4.94334509 3.53812156 -8 5 C-8.66 4.01 -9.32 3.02 -10 2 C-3.375 -1.125 -3.375 -1.125 0 0 Z " fill="#181818" transform="translate(170,120)"/>
<path d="M0 0 C1.37562854 1.28965176 2.70766393 2.62689293 4 4 C4 4.66 4 5.32 4 6 C1 8 1 8 -2 8 C-1.125 1.125 -1.125 1.125 0 0 Z " fill="#303030" transform="translate(109,77)"/>
<path d="M0 0 C0.66 0.33 1.32 0.66 2 1 C2.40729228 3.32156597 2.74438677 5.6568787 3 8 C0.69 7.01 -1.62 6.02 -4 5 C-3.67 4.34 -3.34 3.68 -3 3 C-2.34 3 -1.68 3 -1 3 C-0.67 2.01 -0.34 1.02 0 0 Z " fill="#1B1B1B" transform="translate(136,67)"/>
<path d="M0 0 C2 1 2 1 2.71484375 2.796875 C3.05492772 5.4243731 2.57485559 6.82034657 1.5625 9.25 C1.27503906 9.95640625 0.98757812 10.6628125 0.69140625 11.390625 C0.46324219 11.92171875 0.23507813 12.4528125 0 13 C-0.96661363 9.87819599 -0.98988909 7.47916205 -0.5625 4.25 C-0.46066406 3.45078125 -0.35882813 2.6515625 -0.25390625 1.828125 C-0.17011719 1.22484375 -0.08632812 0.6215625 0 0 Z " fill="#C4C4C4" transform="translate(201,64)"/>
<path d="M0 0 C-0.33 1.32 -0.66 2.64 -1 4 C-3.31 4.66 -5.62 5.32 -8 6 C-8.33 5.34 -8.66 4.68 -9 4 C-2.25 0 -2.25 0 0 0 Z " fill="#212121" transform="translate(80,21)"/>
<path d="M0 0 C0.33 0.66 0.66 1.32 1 2 C3.02463255 2.65213292 3.02463255 2.65213292 5 3 C3.25 7.875 3.25 7.875 1 9 C-1.125 2.25 -1.125 2.25 0 0 Z " fill="#1D1D1D" transform="translate(94,106)"/>
<path d="M0 0 C0.33 1.32 0.66 2.64 1 4 C0.34 4 -0.32 4 -1 4 C-1.66 5.98 -2.32 7.96 -3 10 C-3.99 9.67 -4.98 9.34 -6 9 C-4.02 6.03 -2.04 3.06 0 0 Z " fill="#282828" transform="translate(190,71)"/>
<path d="M0 0 C0.66 0.66 1.32 1.32 2 2 C-0.64 3.65 -3.28 5.3 -6 7 C-6 6.01 -6 5.02 -6 4 C-3 1.8125 -3 1.8125 0 0 Z " fill="#1B1B1B" transform="translate(237,274)"/>
<path d="M0 0 C0.66 0.99 1.32 1.98 2 3 C1.67 3.33 1.34 3.66 1 4 C0.76518307 6.18292774 0.58636677 8.37203174 0.4375 10.5625 C0.35371094 11.76003906 0.26992187 12.95757812 0.18359375 14.19140625 C0.12300781 15.11824219 0.06242187 16.04507813 0 17 C-0.33 17 -0.66 17 -1 17 C-1.02684679 14.35409986 -1.04676357 11.70846904 -1.0625 9.0625 C-1.07087891 8.30775391 -1.07925781 7.55300781 -1.08789062 6.77539062 C-1.09652441 4.85005687 -1.05224333 2.92464419 -1 1 C-0.67 0.67 -0.34 0.34 0 0 Z " fill="#171717" transform="translate(85,62)"/>
<path d="M0 0 C0 0.33 0 0.66 0 1 C-1.0725 1.103125 -2.145 1.20625 -3.25 1.3125 C-6.85820872 1.97400493 -8.36395023 2.57483421 -11 5 C-11 2 -11 2 -10 0.25 C-6.69692681 -1.81442074 -3.74371434 -0.67509603 0 0 Z " fill="#343434" transform="translate(100,53)"/>
<path d="M0 0 C0.99 0 1.98 0 3 0 C3.66 2.64 4.32 5.28 5 8 C4.01 8.495 4.01 8.495 3 9 C2.01 6.03 1.02 3.06 0 0 Z " fill="#202020" transform="translate(11,208)"/>
<path d="M0 0 C1.98362069 2.91708924 1.9876191 4.12380904 1.625 7.75 C1.41875 8.8225 1.2125 9.895 1 11 C0.67 11 0.34 11 0 11 C-0.19406478 9.35492782 -0.38007935 7.70890406 -0.5625 6.0625 C-0.66691406 5.14597656 -0.77132813 4.22945313 -0.87890625 3.28515625 C-0.91886719 2.53105469 -0.95882813 1.77695313 -1 1 C-0.67 0.67 -0.34 0.34 0 0 Z " fill="#131313" transform="translate(297,119)"/>
<path d="M0 0 C4.455 1.98 4.455 1.98 9 4 C8.67 4.66 8.34 5.32 8 6 C5.125 5.25 5.125 5.25 2 4 C1.34 2.68 0.68 1.36 0 0 Z " fill="#1E1E1E" transform="translate(213,16)"/>
<path d="M0 0 C2.475 0.495 2.475 0.495 5 1 C5.33 2.65 5.66 4.3 6 6 C4.68 6.33 3.36 6.66 2 7 C2.66 6.67 3.32 6.34 4 6 C2.68 4.02 1.36 2.04 0 0 Z " fill="#3C3C3C" transform="translate(196,108)"/>
<path d="M0 0 C-2.38573379 1.89213369 -4.07175348 3.02391783 -7 4 C-7 3.01 -7 2.02 -7 1 C-3.375 -1.125 -3.375 -1.125 0 0 Z " fill="#1A1A1A" transform="translate(218,288)"/>
<path d="M0 0 C0.66 0.66 1.32 1.32 2 2 C-1.96 3.98 -1.96 3.98 -6 6 C-6 5.01 -6 4.02 -6 3 C-4.02 2.01 -2.04 1.02 0 0 Z " fill="#181818" transform="translate(225,282)"/>
<path d="M0 0 C1.8125 0.125 1.8125 0.125 4 1 C5.75 4.0625 5.75 4.0625 7 7 C6.01 7.495 6.01 7.495 5 8 C4.16382818 6.8562364 3.33113541 5.70992861 2.5 4.5625 C2.0359375 3.92441406 1.571875 3.28632813 1.09375 2.62890625 C0 1 0 1 0 0 Z " fill="#202020" transform="translate(27,238)"/>
<path d="M0 0 C1.32 0.99 2.64 1.98 4 3 C3.67 4.65 3.34 6.3 3 8 C0.37613513 4.93882432 0 4.26826873 0 0 Z " fill="#202020" transform="translate(133,156)"/>
<path d="M0 0 C0.66 0 1.32 0 2 0 C3 1 4 2 5 3 C7.09989652 4.17574711 7.09989652 4.17574711 9 5 C6.75 5.75 6.75 5.75 4 6 C1.6875 4.1875 1.6875 4.1875 0 2 C0 1.34 0 0.68 0 0 Z " fill="#242424" transform="translate(169,133)"/>
<path d="M0 0 C1.98 0.99 3.96 1.98 6 3 C6 3.66 6 4.32 6 5 C4.35 5.33 2.7 5.66 1 6 C0.67 4.02 0.34 2.04 0 0 Z " fill="#DEDEDE" transform="translate(197,97)"/>
<path d="M0 0 C3.25543229 0.34879632 4.01873107 1.02133261 6.25 3.5625 C6.8275 4.366875 7.405 5.17125 8 6 C4.74456771 5.65120368 3.98126893 4.97866739 1.75 2.4375 C1.1725 1.633125 0.595 0.82875 0 0 Z " fill="#080808" transform="translate(254,46)"/>
<path d="M0 0 C0.99 0.33 1.98 0.66 3 1 C1.38405168 3.04119788 -0.2856382 5.04072937 -2 7 C-2.66 7 -3.32 7 -4 7 C-2.79618552 4.50638429 -1.54571278 2.31856917 0 0 Z " fill="#1C1C1C" transform="translate(39,238)"/>
<path d="M0 0 C0.99 0.33 1.98 0.66 3 1 C3.33 2.98 3.66 4.96 4 7 C3.01 7.495 3.01 7.495 2 8 C0.74335022 5.09399739 0 3.20395416 0 0 Z " fill="#222222" transform="translate(166,125)"/>
<path d="M0 0 C0.66 0 1.32 0 2 0 C1.43628586 3.26954202 0.50037734 4.82575883 -2 7 C-4 6 -4 6 -5 4 C-4.360625 3.71125 -3.72125 3.4225 -3.0625 3.125 C-0.84793921 2.17176549 -0.84793921 2.17176549 0 0 Z " fill="#242424" transform="translate(193,116)"/>
<path d="M0 0 C-1.32 1.32 -2.64 2.64 -4 4 C-6 3 -6 3 -8 0 C-4.71023192 -1.09658936 -3.28696233 -0.79953138 0 0 Z " fill="#191919" transform="translate(112,119)"/>
<path d="M0 0 C2 3 2 3 1.625 5.6875 C1.41875 6.450625 1.2125 7.21375 1 8 C0.01 8 -0.98 8 -2 8 C-1.125 2.25 -1.125 2.25 0 0 Z " fill="#3B3B3B" transform="translate(10,99)"/>
<path d="M0 0 C0.33 1.32 0.66 2.64 1 4 C-0.98 4.99 -0.98 4.99 -3 6 C-3 3 -3 3 -1.5 1.3125 C-0.7575 0.6628125 -0.7575 0.6628125 0 0 Z " fill="#272727" transform="translate(193,87)"/>
<path d="M0 0 C1.8125 0.1875 1.8125 0.1875 4 1 C5.75 3.5625 5.75 3.5625 7 6 C6.01 6 5.02 6 4 6 C1.8125 3 1.8125 3 0 0 Z " fill="#1A1A1A" transform="translate(102,70)"/>
<path d="M0 0 C-1.75 1.5625 -1.75 1.5625 -4 3 C-6.25 2.6875 -6.25 2.6875 -8 2 C-5.14066998 -0.85933002 -3.8625627 -1.2875209 0 0 Z " fill="#222222" transform="translate(103,12)"/>
</svg>
